<?xml version="1.0" encoding="UTF-8"?>
<svg xmlns="http://www.w3.org/2000/svg" version="2.0">
<polyline points ="0,100 
31.883,94.45326325 
37.082,94.895136125 
39.626,95.08375385 
41.900999999999996,95.28460805 
48.338,95.43036135 
50.762,95.310418875 
53.932,95.11325827499999 
57.21400000000001,94.883031875 
60.24400000000001,94.699456275 
63.16700000000001,94.5900979 
76.78,94.067273775 
80.285,93.8994447 
83.887,93.677298275 
88.622,93.232991625 
92.535,92.78881595 
95.56700000000001,92.50614265 
103.454,91.700319825 
106.761,91.3325518 
109.29499999999999,91.015055025 
112.04199999999999,90.768076525 
115.37399999999998,90.401269275 
120.67399999999998,89.975460275 
124.86999999999998,89.87641805 
127.85499999999998,89.98607307500001 
131.36099999999996,90.18196945 
134.801,90.39541815 
142.22599999999997,90.106775125 
146.12999999999997,89.460374725 
150.42499999999998,88.621700875 
156.98099999999997,87.506729475 
167.56399999999996,86.86825759999999 
175.70299999999997,87.09618375 
180.61599999999999,87.23692205 
190.57799999999997,87.547479875 
199.646,87.8434965 
215.248,88.7965777 
216.823,88.824618175 
218.82600000000002,88.827704875 
246.38900000000004,87.605897125 
251.04000000000005,87.02706735 
259.6530000000001,86.09297375 
261.7950000000001,85.936367025 
263.0060000000001,85.880127825 
264.6020000000001,85.855495525 
265.9860000000001,85.83643215000001 
272.68900000000014,85.75299705 
278.74900000000014,85.66430055000001 
287.6270000000001,85.47666165 
295.03000000000014,85.37714282499999 
305.6150000000001,86.124132975 
318.5450000000002,86.613452825 
322.6310000000002,86.29220505 
331.6570000000002,85.72629135 
349.0830000000002,85.35427005 
353.6510000000002,85.336231375 
363.11800000000017,85.323935375 
367.76500000000016,85.33054332500001 
372.24100000000016,85.41422175 
376.0980000000002,85.90407815 
387.0630000000002,87.885364775 
404.14200000000017,88.554150575 
420.62500000000017,87.574518775 
467.9750000000002,87.27385955 
479.2690000000001,87.087196075 
489.1440000000001,86.751572575 
509.4950000000002,85.995712975 
514.9590000000002,86.28064245 
521.8760000000002,86.694217275 
527.9020000000003,87.370552 
535.1610000000003,88.0931756 
541.0960000000002,89.46508515 
581.1100000000004,92.290073725 
581.1100000000004,100 " stroke="red"/>
</svg>
