<?xml version="1.0" encoding="UTF-8"?>
<svg xmlns="http://www.w3.org/2000/svg" version="2.0">
<polyline points ="0,100 
37.660000000000004,86.4680856 
39.34,95.537081825 
47.73800000000001,95.537081825 
53.135000000000005,86.4680856 
58.771,95.537081825 
62.854000000000006,88.331090025 
80.18700000000001,88.331090025 
86.352,95.13809702500001 
89.93400000000001,90.984950275 
92.126,88.331090025 
106.97,88.331090025 
111.56300000000002,90.383397225 
119.662,89.816974525 
124.874,88.331090025 
131.637,90.273704625 
141.084,90.273704625 
146.404,90.273704625 
148.84099999999998,88.848572425 
158.329,86.863938225 
168.362,88.848572425 
176.771,86.51496715 
187.39299999999997,88.848572425 
197.57,90.0021754 
214.18799999999996,65.86751104999999 
245.95899999999997,87.164038275 
257.888,85.68772215 
259.70799999999997,85.68772215 
261.3929999999999,85.481999175 
263.4419999999999,85.68772215 
264.92599999999993,85.68772215 
278.06999999999994,85.481999175 
284.18499999999995,87.3281307 
293.15099999999995,84.282860125 
303.21399999999994,87.0487234 
317.5469999999999,84.14539005 
328.11999999999995,85.5362008 
343.5759999999999,85.5362008 
349.03499999999997,85.3895896 
353.31199999999995,84.065070625 
358.977,85.08468215 
365.203,85.08468215 
385.587,88.627349175 
413.907,86.30887305 
461.475,84.609030225 
474.784,85.7004103 
502.716,84.145411125 
508.28499999999997,84.145411125 
514.324,86.7071478 
519.857,86.821710925 
528.925,86.821710925 
542.228,90.43949415 
574.316,88.290656875 
574.316,100 " stroke="red"/>
</svg>
